<?xml version="1.0" encoding="iso-8859-1"?>
<!-- Generator: Adobe Illustrator 18.0.0, SVG Export Plug-In . SVG Version: 6.00 Build 0)  -->
<!DOCTYPE svg PUBLIC "-//W3C//DTD SVG 1.1//EN" "http://www.w3.org/Graphics/SVG/1.1/DTD/svg11.dtd">
<svg xmlns="http://www.w3.org/2000/svg" xmlns:xlink="http://www.w3.org/1999/xlink" version="1.1" id="Capa_1" x="0px" y="0px" viewBox="0 0 444.004 444.004" style="enable-background:new 0 0 444.004 444.004;" xml:space="preserve" width="512px" height="512px">
<g>
	<path d="M222.641,278.004c8.685,0,15.75-7.065,15.75-15.75c0-8.685-7.065-15.75-15.75-15.75c-8.684,0-15.75,7.065-15.75,15.75   C206.891,270.939,213.956,278.004,222.641,278.004z M222.641,254.504c4.273,0,7.75,3.477,7.75,7.75c0,4.273-3.477,7.75-7.75,7.75   c-4.273,0-7.75-3.477-7.75-7.75C214.891,257.981,218.368,254.504,222.641,254.504z" fill="#FFFFFF"/>
	<path d="M337.409,56.874c-0.335-1.006-1.057-1.838-2.005-2.313l-41.792-20.907l4.027-8.049c0.988-1.976,0.189-4.378-1.787-5.367   l-17.478-8.744c-0.95-0.475-2.049-0.553-3.054-0.218c-1.007,0.335-1.839,1.057-2.313,2.005l-4.027,8.049L227.19,0.424   c-1.978-0.99-4.379-0.189-5.367,1.788l-11.409,22.805c-0.475,0.949-0.553,2.047-0.218,3.054c0.335,1.006,1.057,1.838,2.005,2.313   l4.921,2.462l-54.138,108.209c-0.592,1.182-0.561,2.581,0.082,3.735l22.532,40.464l-8.379,16.75h-2.828   c-1.676,0-3.174,1.045-3.753,2.617l-6.036,16.383h-3.211v-7c0-2.209-1.791-4-4-4h-26c-2.209,0-4,1.791-4,4v4.5h-17   c-2.209,0-4,1.791-4,4v7.923c0,1.847,1.265,3.454,3.061,3.888l17.939,4.337v4.852h-7.667c-2.209,0-4,1.791-4,4c0,2.209,1.791,4,4,4   h7.667v4.852l-17.94,4.337c-1.795,0.434-3.06,2.041-3.06,3.888v7.923c0,2.209,1.791,4,4,4h17v4.5c0,2.209,1.791,4,4,4h26   c2.209,0,4-1.791,4-4v-6h13.724l-3.544,40.748c-1.053,12.116-11.018,21.252-23.18,21.252c-1.925,0-3.576,1.371-3.932,3.262   c-0.355,1.892,0.688,3.768,2.481,4.466l3.839,1.493c3.689,1.434,7.534,2.145,11.362,2.144c5.48,0,10.924-1.456,15.81-4.327   c8.298-4.875,13.814-13.138,15.134-22.671l3.928-28.368h28.196l10.601,45.936l-13.934,7.564c-4.429,2.404-7.352,6.641-8.02,11.623   c-0.681,5.075,1.066,10.034,4.813,13.626l0.099,0.096c3.994,3.868,6.911,8.735,8.437,14.075l10.341,36.18   c0.492,1.723,2.066,2.901,3.844,2.901c0.06,0,0.12-0.001,0.18-0.004l10.822-0.481v15.485c0,2.209,1.791,4,4,4h20.5   c2.209,0,4-1.791,4-4v-16.751l5.678-0.252c1.205-0.054,2.322-0.648,3.039-1.619c0.718-0.97,0.958-2.213,0.655-3.381l-22.31-86.051   c-2.652-10.217,3.193-20.599,13.307-23.634l18.28-5.48c1.511-0.453,2.614-1.751,2.818-3.315c0.203-1.563-0.53-3.101-1.875-3.926   l-42.435-26.04l-0.089-0.551h17.433c7.168,0,13-5.832,13-13c0-7.168-5.832-13-13-13h-21.625l-0.425-2.637   c-0.239-1.484-1.291-2.708-2.722-3.17l-28.343-9.143l-0.362-9.05h8.977c2.757,0,5,2.243,5,5c0,2.209,1.791,4,4,4   c2.209,0,4-1.791,4-4c0-7.168-5.832-13-13-13h-9.297l-0.206-5.16c-0.086-2.145-1.851-3.84-3.997-3.84h-6.626l1.667-3.33   l45.887-6.226c1.31-0.178,2.447-0.992,3.039-2.174l54.14-108.213l4.917,2.46c0.575,0.288,1.186,0.424,1.787,0.424   c1.467,0,2.879-0.81,3.58-2.211l11.409-22.805C337.665,58.979,337.743,57.881,337.409,56.874z M114.391,227.279v-0.775h13v3.918   L114.391,227.279z M114.391,268.504v-0.775l13-3.143v3.918H114.391z M153.391,277.004h-18v-59h18V277.004z M276.135,24.91   l2.237-4.472l10.322,5.165l-2.237,4.471L276.135,24.91z M161.391,229.004h4.853l9.147,5.717v32.283h-14V229.004z M173.899,337.145   c-2.715,1.595-5.661,2.603-8.678,3.012c7.949-5.042,13.441-13.606,14.32-23.712l3.604-41.441h2.245v14   c0,2.056,1.557,3.73,3.553,3.955l-3.782,27.315C184.179,327.369,180.075,333.517,173.899,337.145z M239.829,400.984l37.267-1.892   l1.069,4.122l-37.159,1.887L239.829,400.984z M275.046,391.186l-37.474,1.903l-1.148-4.017l37.579-1.908L275.046,391.186z    M271.954,379.258l-37.88,1.923c-0.506-1.404-1.102-2.77-1.76-4.104l38.567-1.958L271.954,379.258z M272.891,436.004h-12.5v-11.84   l12.5-0.556V436.004z M244.368,416.868l-1.107-3.872l36.953-1.876l1.065,4.108L244.368,416.868z M280.391,256.004   c0,2.757-2.243,5-5,5h-3v-10h3C278.148,251.004,280.391,253.247,280.391,256.004z M264.391,251.004v10h-7.723l-1.613-10H264.391z    M214.394,231.164c0.067,1.676,1.173,3.132,2.77,3.647l28.669,9.248l4.609,28.582c0.186,1.151,0.864,2.163,1.857,2.772   l36.382,22.326l-9.72,2.914c-14.253,4.277-22.49,18.907-18.753,33.305l8.617,33.237l-41.715,1.918   c-0.873-1.04-2.926-3.155-2.926-3.155c-1.863-1.786-2.737-4.252-2.4-6.768c0.325-2.423,1.75-4.485,3.908-5.656l16.606-9.015   c1.58-0.858,2.394-2.664,1.989-4.415l-12-52c-0.419-1.815-2.035-3.101-3.898-3.101h-35v-14c0-2.209-1.791-4-4-4h-6v-34.5   c0-1.379-0.711-2.661-1.88-3.392l-9.243-5.777l4.912-13.331h36.368L214.394,231.164z M186.164,202.004l5.745-11.484l12.524,6.262   l-2.613,5.222H186.164z M210.485,190.865l-17.47-8.736l-16.655-29.91l68.042,34.043L210.485,190.865z M255.993,183.117   l-84.065-42.061l52.348-104.632l84.068,42.057L255.993,183.117z M320.416,75.577L219.358,25.019l7.83-15.65l101.059,50.557   L320.416,75.577z" fill="#FFFFFF"/>
</g>
<g>
</g>
<g>
</g>
<g>
</g>
<g>
</g>
<g>
</g>
<g>
</g>
<g>
</g>
<g>
</g>
<g>
</g>
<g>
</g>
<g>
</g>
<g>
</g>
<g>
</g>
<g>
</g>
<g>
</g>
</svg>
